<?xml version="1.0" encoding="UTF-8"?>
<svg id="_레이어_2" data-name="레이어 2" xmlns="http://www.w3.org/2000/svg" viewBox="0 0 16 16">
  <defs>
    <style>
      .cls-1 {
        fill: none;
      }
    </style>
  </defs>
  <g id="Layer_2" data-name="Layer 2">
    <path d="m13,2.1l-1.1-1.1c-.6-.6-1.5-1-2.4-1h-4.2c-1.8,0-3.3,1.5-3.3,3.3v9.4c0,1.8,1.5,3.3,3.3,3.3h5.4c1.8,0,3.3-1.5,3.3-3.3V4.4c0-.9-.3-1.7-1-2.3h0Zm-.9.9c.1.1.2.2.3.3h-1.7v-1.7c.1.1.2.2.3.3l1.1,1.1Zm.6,9.7c0,1.1-.9,2-2,2h-5.4c-1.1,0-2-.9-2-2V3.3c0-1.1.9-2,2-2h4v2c0,.7.6,1.3,1.3,1.3h2l.1,8.1Zm-2-6.7c.4,0,.7.3.7.7s-.3.7-.7.7h-5.4c-.4,0-.7-.3-.7-.7s.3-.7.7-.7h5.4Zm.6,3.3c0,.4-.3.7-.7.7h-5.4c-.4,0-.7-.3-.7-.7s.3-.7.7-.7h5.4c.4.1.7.4.7.7h0Zm-.1,2.3c.2.3.2.7-.1.9-.7.5-1.5.8-2.3.8-.5,0-1-.2-1.3-.5-.2-.2-.3-.2-.5-.2-.4.1-.9.3-1.2.5s-.7.2-.9-.1c-.2-.3-.2-.7.1-.9.6-.5,1.3-.7,2-.8.4,0,.9.2,1.2.4.2.1.4.2.6.2.5,0,1.1-.2,1.5-.5.3-.1.7-.1.9.2h0Z"/>
    <rect class="cls-1" width="16" height="16"/>
  </g>
</svg>