<?xml version="1.0" encoding="UTF-8"?>
<svg id="_레이어_2" data-name="레이어 2" xmlns="http://www.w3.org/2000/svg" viewBox="0 0 16 16">
  <defs>
    <style>
      .cls-1 {
        fill: none;
      }
    </style>
  </defs>
  <g id="Layer_2" data-name="Layer 2">
    <path d="m8,9.97c-1.1,0-2,.9-2,2v4h4v-4c0-1.1-.9-2-2-2h0Zm3.3,1.9v4h2.6c1.1,0,2-.9,2-2h0v-6c0-.3-.1-.7-.4-.9L9.9.87c-1-1.1-2.7-1.1-3.7-.1-.1,0-.1.1-.1.1L.5,6.97c-.2.2-.4.6-.4.9v6c0,1.1.9,2,2,2h2.6v-4c-.1-1.8,1.3-3.4,3.1-3.5,1.8-.1,3.4,1.3,3.5,3.1,0,.2,0,.3,0,.4h0Zm-3.3-1.9c-1.1,0-2,.9-2,2v4h4v-4c0-1.1-.9-2-2-2h0Z"/>
    <rect class="cls-1" width="16" height="16"/>
  </g>
</svg>