<?xml version="1.0" encoding="UTF-8"?>
<svg id="_레이어_2" data-name="레이어 2" xmlns="http://www.w3.org/2000/svg" viewBox="0 0 16 16">
  <defs>
    <style>
      .cls-1 {
        fill: none;
      }
    </style>
  </defs>
  <g id="Layer_2" data-name="Layer 2">
    <path d="m15.4,5.99L10.4.99c-1.3-1.3-3.4-1.3-4.7,0L.6,5.99c-.4.4-.6.9-.6,1.4v6.6c0,1.1.9,2,2,2h12c1.1,0,2-.9,2-2v-6.6c0-.5-.2-1-.6-1.4Zm-5.4,8.7h-4v-2.6c0-1.1.9-2,2-2s2,.9,2,2h0v2.6Zm4.7-.7c0,.4-.3.7-.7.7h-2.7v-2.6c0-1.8-1.4-3.4-3.3-3.4-1.8,0-3.4,1.4-3.4,3.3v2.7h-2.6c-.4,0-.7-.3-.7-.7v-6.6c0-.2.1-.3.2-.5L6.6,1.79c.8-.8,2.1-.8,2.8,0l5.1,5.1c.1.1.2.3.2.5v6.6Z"/>
    <rect class="cls-1" width="16" height="16"/>
  </g>
</svg>