<?xml version="1.0" encoding="utf-8"?>
<!-- Generator: Adobe Illustrator 27.9.0, SVG Export Plug-In . SVG Version: 6.00 Build 0)  -->
<svg version="1.1" id="_레이어_2" xmlns="http://www.w3.org/2000/svg" xmlns:xlink="http://www.w3.org/1999/xlink" x="0px"
	 y="0px" viewBox="0 0 20 20" style="enable-background:new 0 0 20 20;" xml:space="preserve">
<style type="text/css">
	.st0{fill:none;}
	.st1{opacity:0.5;fill:none;enable-background:new    ;}
</style>
<g id="_레이어_1-2">
	<rect class="st0" width="20" height="20"/>
	<g>
		<path class="st1" d="M13.8,3.2c-2.9,0-3.8,3.2-3.8,3.2S9.1,3.2,6.2,3.2C4,3.2,1.7,4.7,1.7,7.7s3.8,6.2,3.8,6.2s2.8,2.3,4.4,2.9
			c1.7-0.7,4.4-2.9,4.4-2.9s3.9-3.2,3.9-6.2S16,3.2,13.8,3.2z"/>
		<path d="M13.8,3.2c2.2,0,4.5,1.5,4.5,4.5s-3.9,6.2-3.9,6.2s-2.8,2.3-4.4,2.9c-1.7-0.7-4.4-2.9-4.4-2.9s-3.8-3.2-3.8-6.2
			S4,3.2,6.2,3.2c2.9,0,3.8,3.2,3.8,3.2S10.9,3.2,13.8,3.2 M13.8,1.5c-1.6,0-2.9,0.7-3.8,1.6C9.1,2.2,7.9,1.5,6.2,1.5
			C3.2,1.5,0,3.7,0,7.7c0,3.7,4,7.1,4.5,7.5c0.3,0.2,3,2.5,4.9,3.2c0.2,0.1,0.4,0.1,0.6,0.1s0.4,0,0.6-0.1c1.9-0.7,4.6-3,4.9-3.2
			C16,14.8,20,11.4,20,7.7C20,3.7,16.8,1.5,13.8,1.5L13.8,1.5L13.8,1.5z"/>
	</g>
</g>
</svg>
