<?xml version="1.0" encoding="UTF-8"?>
<svg id="_레이어_2" data-name="레이어 2" xmlns="http://www.w3.org/2000/svg" viewBox="0 0 16 16">
  <defs>
    <style>
      .cls-1 {
        fill: none;
      }
    </style>
  </defs>
  <g id="Layer_2" data-name="Layer 2">
    <g>
      <path d="m8,8c2.2,0,4-1.8,4-4S10.2,0,8,0s-4,1.8-4,4h0c0,2.2,1.8,4,4,4Zm0-6.7c1.5,0,2.7,1.2,2.7,2.7s-1.2,2.7-2.7,2.7-2.7-1.2-2.7-2.7h0c0-1.5,1.2-2.7,2.7-2.7h0Z"/>
      <path d="m7.9,9.3c-3.3,0-6,2.7-6,6,0,.4.3.7.7.7s.7-.3.7-.7c0-2.6,2.1-4.7,4.7-4.7s4.7,2.1,4.7,4.7c0,.4.3.7.7.7s.7-.3.7-.7c-.2-3.3-2.9-6-6.2-6Z"/>
    </g>
    <rect class="cls-1" width="16" height="16"/>
  </g>
</svg>