<?xml version="1.0" encoding="UTF-8"?>
<svg id="_레이어_2" data-name="레이어 2" xmlns="http://www.w3.org/2000/svg" viewBox="0 0 16 16">
  <defs>
    <style>
      .cls-1 {
        fill: none;
      }
    </style>
  </defs>
  <g id="Layer_2" data-name="Layer 2">
    <path d="m15.13,14.46l-2.12-8.45c-.06-.22-.26-.38-.49-.38h-1.18v-1.52c0-1.76-1.5-3.19-3.35-3.19s-3.35,1.43-3.35,3.19v1.52h-1.34c-.23,0-.44.16-.49.39L.87,14.47c-.03.15,0,.3.1.42.09.12.24.19.39.19h9.36l-2.44-9.7h-2.16v-1.27c0-.93.83-1.69,1.85-1.69s1.85.76,1.85,1.69v1.27h-.18l2.44,9.7h2.55c.15,0,.3-.07.39-.19s.13-.28.09-.43Z"/>
    <rect class="cls-1" width="16" height="16"/>
  </g>
</svg>