<?xml version="1.0" encoding="UTF-8"?>
<svg id="_레이어_2" data-name="레이어 2" xmlns="http://www.w3.org/2000/svg" viewBox="0 0 16 16">
  <defs>
    <style>
      .cls-1 {
        fill: none;
      }
    </style>
  </defs>
  <g id="Layer_2" data-name="Layer 2">
    <path d="m10.7.2c.5.2.9.4,1.3.8l1,1.1c.4.4.6.8.8,1.3h-3.1s0-3.2,0-3.2Zm3.3,4.5v8c0,1.8-1.5,3.3-3.3,3.3h-5.4c-1.8,0-3.3-1.5-3.3-3.3V3.3c0-1.8,1.5-3.3,3.3-3.3h4v3.3c0,.7.6,1.3,1.3,1.3h0l3.4.1Zm-2.8,6.9c-.2-.3-.6-.4-.9-.2h0c-.4.3-1,.5-1.5.5-.2,0-.4-.1-.6-.2-.3-.3-.8-.4-1.2-.4-.7.1-1.4.3-2,.8-.3.2-.4.6-.1.9.2.3.6.4.9.1h0c.4-.3.8-.5,1.2-.5.2,0,.2.1.5.2.4.3.9.5,1.3.5.8,0,1.6-.3,2.3-.8.3-.2.3-.6.1-.9h0Zm.2-2.3c0-.4-.3-.7-.7-.7h-5.4c-.4,0-.7.3-.7.7s.3.7.7.7h5.4c.3,0,.6-.3.7-.7q-.1,0,0,0h0Zm0-2.6c0-.4-.3-.7-.7-.7h-5.4c-.4,0-.7.3-.7.7s.3.7.7.7h5.4c.3-.1.6-.4.7-.7h0Z"/>
    <rect class="cls-1" width="16" height="16"/>
  </g>
</svg>