<?xml version="1.0" encoding="UTF-8"?>
<svg id="_레이어_2" data-name="레이어 2" xmlns="http://www.w3.org/2000/svg" viewBox="0 0 16 16">
  <defs>
    <style>
      .cls-1 {
        fill: none;
      }

      .cls-1, .cls-2 {
        stroke-width: 0px;
      }

      .cls-2 {
        fill: #000;
      }
    </style>
  </defs>
  <g id="_레이어_1-2" data-name="레이어 1">
    <rect class="cls-1" width="16" height="16"/>
    <path class="cls-2" d="M9.9,9.95H.75c-.25,0-.49-.13-.63-.34-.14-.21-.16-.48-.06-.71.93-2.19,3-3.6,5.26-3.6s4.33,1.41,5.26,3.6c.1.23.07.5-.07.71-.14.21-.37.34-.62.34ZM2.05,8.45h6.54c-.8-1.03-1.99-1.65-3.27-1.65s-2.47.62-3.27,1.65Z"/>
    <path class="cls-2" d="M9.9,12.86H.75c-.41,0-.75-.34-.75-.75s.34-.75.75-.75h9.15c.41,0,.75.34.75.75s-.34.75-.75.75Z"/>
    <path class="cls-2" d="M9.9,15.76H.75c-.41,0-.75-.34-.75-.75s.34-.75.75-.75h9.15c.41,0,.75.34.75.75s-.34.75-.75.75Z"/>
    <path class="cls-2" d="M15.81,2.9c-.14-.16-.35-.25-.56-.25h-3.59V.99c0-.41-.34-.75-.75-.75s-.75.34-.75.75v1.66h-2.81c-.41,0-.75.34-.75.75s.34.75.75.75h7.06l-1.12,10.12h-1.2c-.41,0-.75.34-.75.75s.34.75.75.75h1.87c.38,0,.7-.29.75-.67l1.28-11.62c.02-.21-.04-.42-.19-.58Z"/>
  </g>
</svg>