<?xml version="1.0" encoding="UTF-8"?>
<svg id="_레이어_2" data-name="레이어 2" xmlns="http://www.w3.org/2000/svg" viewBox="0 0 16 16">
  <defs>
    <style>
      .cls-1 {
        fill: none;
      }

      .cls-1, .cls-2 {
        stroke-width: 0px;
      }

      .cls-2 {
        fill: #000;
      }
    </style>
  </defs>
  <g id="_레이어_1-2" data-name="레이어 1">
    <rect class="cls-1" width="16" height="16"/>
    <path class="cls-2" d="M10.59,8.91c-.93-2.19-2.99-3.6-5.26-3.6S.99,6.72.06,8.91c-.1.23-.07.5.07.71.14.21.37.34.62.34h9.15c.25,0,.49-.13.62-.34.14-.21.16-.48.07-.71Z"/>
    <path class="cls-2" d="M9.9,15.76H.75C.34,15.76,0,15.42,0,15.01s.34-.75.75-.75h9.15c.41,0,.75.34.75.75s-.34.75-.75.75Z"/>
    <rect class="cls-2" x="0" y="11.01" width="10.65" height="2.19" rx=".75" ry=".75"/>
    <path class="cls-2" d="M15.81,2.9c-.14-.16-.35-.25-.56-.25h-3.59V.99c0-.41-.34-.75-.75-.75s-.75.34-.75.75v1.66h-2.81c-.21,0-.41.09-.55.24-.14.15-.21.35-.2.56l.07,1.04c2.09.47,3.88,1.94,4.77,4.04.23.54.17,1.16-.15,1.65-.06.09-.13.17-.21.24.31.32.5.74.5,1.22v.96c0,.47-.19.9-.49,1.21.3.31.49.74.49,1.21,0,.27-.07.52-.18.75h2.56c.38,0,.7-.29.75-.67l1.28-11.62c.02-.21-.04-.42-.19-.58Z"/>
  </g>
</svg>