<?xml version="1.0" encoding="UTF-8"?>
<svg id="_레이어_2" data-name="레이어 2" xmlns="http://www.w3.org/2000/svg" viewBox="0 0 36 36">
  <defs>
    <style>
      .cls-1, .cls-2 {
        fill: none;
      }

      .cls-3 {
        fill: #f6cd2c;
      }

      .cls-4 {
        fill: #e59e67;
      }

      .cls-5 {
        fill: #fff;
      }

      .cls-6 {
        fill: #f0c07f;
      }

      .cls-7 {
        fill: #fce4d2;
      }

      .cls-8 {
        fill: #fbd943;
      }

      .cls-9 {
        fill: #e39d68;
      }

      .cls-2 {
        stroke: #7d767d;
        stroke-dasharray: 0 0 2.5 2.5;
        stroke-linecap: round;
        stroke-linejoin: round;
        stroke-width: 1.5px;
      }

      .cls-10 {
        isolation: isolate;
      }
    </style>
  </defs>
  <g id="Layer_4" data-name="Layer 4">
    <g>
      <g>
        <g>
          <path class="cls-3" d="m6.64,31.02l-3.49-7.76c-.42-.87-.74-1.68-.79-2.65l-.02-.51c-.13-2.86,1.81-5.31,4.36-5.59-.05,0-.11,0-.16,0-2.9.14-5.17,2.67-5.03,5.63l.02.5c.05.97.39,1.78.84,2.65l3.74,7.73c.18.38.59.51.93.39-.16-.06-.31-.19-.4-.39Z"/>
          <path class="cls-8" d="m12.12,19.64c-.14-2.96-2.46-5.29-5.15-5.16-.09,0-.19.02-.28.03-2.55.28-4.49,2.73-4.36,5.59l.02.51c.05.98.37,1.78.79,2.65l3.49,7.76c.09.2.24.32.4.39.32.13.7,0,.88-.38l3.45-7.7c.48-1.05.84-2.01.78-3.19l-.02-.51Z"/>
          <circle class="cls-5" cx="7.04" cy="19.7" r="2.24"/>
        </g>
        <path class="cls-2" d="m25.62,17.46c-.15,1.94-1.7,3.24-3.38,3.97-.86.37-1.77.62-2.7.77-1.12.18-2.11.18-3.11.81-.5.31-.94.71-1.3,1.18-.18.24-.34.5-.4.79-.09.41,0,.84.1,1.25.05.21.1.43.22.61.16.25.43.42.71.55.74.36,1.56.52,2.38.63,1.69.22,3.39.23,5.09.17,1.33-.04,3.16-.49,4.35.26,1.4.88,1.66,3.02.31,4.07-.1.08-.21.15-.32.21-.03.02-.07.04-.1.06-.23.12-.5.18-.77.19-2.86.1-16.93.65-19.49.04"/>
        <g>
          <g>
            <path class="cls-4" d="m32.51,7.44l-.17-.54c-.21-2.88-.36-3.9-.87-4.22-.36-.24-.81-.06-1.49.19l.06.16s0,0-.01,0l-2.23,16.96h-.02c-.1,0-.18.08-.18.18,0,.11.11.18.22.18,3.36,0,5.84-.21,5.86-.21.08,0,.15-.07.16-.15.8-5.4-.59-10.05-1.34-12.54Z"/>
            <path class="cls-4" d="m21.44,2.57h-.17c-.44,0-.79.35-.79.84,0,.44.35.79.79.79h.17c.44,0,.79-.35.79-.84,0-.44-.35-.79-.79-.79Z"/>
            <path class="cls-4" d="m24.92,2.58h-.16c-.47,0-.86.38-.86.92,0,.47.38.86.86.86h.16c.47,0,.86-.38.86-.92,0-.47-.38-.86-.86-.86Z"/>
            <path class="cls-4" d="m28.26,2.58c-.45,0-.82.37-.82.82v.14c0,.45.37.82.82.82h.05c.45,0,.82-.37.82-.82v-.14c0-.45-.37-.82-.87-.82Z"/>
            <path class="cls-6" d="m30.26,2.99c-.15-.26-.32-.4-.53-.45-.33-.07-.64.15-.93.36-.54.4-.84.57-1.36-.05-.79-.72-1.43-.26-1.91.08-.51.36-.88.63-1.52.12-.16-.21-.48-.42-.72-.49-.44-.15-1.11-.13-1.81.74-.16.01-.5,0-.72-.24-.03-.05-.36-.45-.81-.5-.23-.03-.46.05-.65.22,0,0-.02.02-.03.03-.05.05-1.15,1.32-.8,3.76-.45.98-4.21,9.43-2.46,13.52.04.1.14.17.26.18,2.47.13,5.88.27,8.53.27,2.13,0,3.77-.1,4.02-.37.05-.06.08-.13.07-.21-.11-2.45-.25-9.06.44-10.18.59-1.13,1.96-4.98.93-6.8Z"/>
          </g>
          <path class="cls-7" d="m24.91,11.27c-.1-.07-.23-.06-.31.03l-.8.95s-.05.03-.08,0c-.02-.02-.03-.05,0-.07l.8-.95s0,0,0-.01c.07-.09.05-.21-.05-.28-.09-.07-.22-.06-.3.02,0,0,0,0,0,0l-.8.95s-.05.03-.08,0c-.02-.02-.03-.05,0-.07l.8-.95c.07-.09.06-.22-.04-.29-.1-.07-.23-.06-.31.03-.05.06-.61.72-.83.98l-.09.1c-.04.05-.08.11-.11.17-.13.24-.11.48-.1.67,0,.14.02.26-.04.32,0,0,0,0,0,0l.07.05s0,0,0,0l.19.14s0,0,0,0c0,0,0,0,0,0l.07.05s0,0,0,0c.05-.06.17-.08.32-.11.2-.03.45-.07.67-.25.05-.04.1-.09.15-.14l.09-.1c.22-.26.77-.92.83-.98.07-.09.06-.22-.04-.29Z"/>
          <path class="cls-5" d="m25.91,4.5h-3.11c-.39,0-.7.31-.7.74,0,.39.31.7.7.7h3.11c.39,0,.7-.31.7-.74,0-.39-.31-.7-.7-.7Z"/>
          <path class="cls-4" d="m28.93,6.56h-9.72c-.16,0-.3.13-.3.31,0,.16.13.3.3.3h9.72c.16,0,.3-.13.3-.31,0-.16-.13-.3-.3-.3Z"/>
          <g class="cls-10">
            <rect class="cls-9" x="19.61" y="13.78" width="3.55" height="1.15" rx=".55" ry=".55" transform="translate(46.65 9.39) rotate(135)"/>
            <path class="cls-7" d="m20.53,15.85c-.16,0-.32-.06-.43-.18l-.04-.04c-.11-.11-.18-.27-.18-.43s.06-.32.18-.43l1.73-1.73c.23-.23.63-.23.86,0l.04.04c.24.24.24.62,0,.86l-1.73,1.73c-.11.11-.27.18-.43.18Zm1.69-2.86c-.13,0-.25.05-.35.14l-1.73,1.73c-.09.09-.14.22-.14.35s.05.25.14.35l.04.04c.18.19.51.19.69,0l1.73-1.73c.19-.19.19-.5,0-.69l-.04-.04c-.09-.09-.22-.14-.35-.14Z"/>
          </g>
          <g class="cls-10">
            <rect class="cls-9" x="21.32" y="13.7" width="3.55" height="1.15" rx=".55" ry=".55" transform="translate(16.86 -12.14) rotate(45)"/>
            <path class="cls-7" d="m23.94,15.77c-.16,0-.31-.06-.43-.18h0s-1.73-1.73-1.73-1.73c-.24-.24-.24-.62,0-.86l.04-.04c.11-.11.27-.18.43-.18h0c.16,0,.31.06.43.18l1.73,1.73c.24.24.24.62,0,.86l-.04.04c-.12.12-.27.18-.43.18Zm-.35-.26c.19.19.5.19.69,0l.04-.04c.19-.19.19-.5,0-.69l-1.73-1.73c-.09-.09-.21-.14-.35-.14h0c-.13,0-.25.05-.35.14l-.04.04c-.19.19-.19.5,0,.69l1.73,1.73Z"/>
          </g>
          <path class="cls-7" d="m21.65,11.14c-.54-.58-1.34-.72-1.79-.31-.45.41-.37,1.22.16,1.81.33.36.76.55,1.14.55.24,0,.47-.08.64-.24.45-.41.37-1.22-.16-1.81Z"/>
        </g>
      </g>
      <rect class="cls-1" width="36" height="36"/>
    </g>
  </g>
</svg>