<?xml version="1.0" encoding="UTF-8"?>
<svg id="_레이어_2" data-name="레이어 2" xmlns="http://www.w3.org/2000/svg" viewBox="0 0 36 36">
  <defs>
    <style>
      .cls-1, .cls-2 {
        fill: none;
      }

      .cls-3 {
        fill: #f6cd2c;
      }

      .cls-4 {
        fill: #e59e67;
      }

      .cls-5 {
        fill: #e49d67;
      }

      .cls-6 {
        fill: #fff;
      }

      .cls-7 {
        fill: #f0c07f;
      }

      .cls-8 {
        fill: #f0c080;
      }

      .cls-9 {
        fill: #fce4d2;
      }

      .cls-10 {
        fill: #fbd943;
      }

      .cls-11 {
        fill: #e39d68;
      }

      .cls-2 {
        stroke: #7d767d;
        stroke-dasharray: 0 0 2.5 2.5;
        stroke-linecap: round;
        stroke-linejoin: round;
        stroke-width: 1.5px;
      }

      .cls-12 {
        isolation: isolate;
      }
    </style>
  </defs>
  <g id="Layer_4" data-name="Layer 4">
    <g>
      <g>
        <g>
          <path class="cls-3" d="m6.64,31.02l-3.49-7.76c-.42-.87-.74-1.68-.79-2.65l-.02-.51c-.13-2.86,1.81-5.31,4.36-5.59-.05,0-.11,0-.16,0-2.9.14-5.17,2.67-5.03,5.63l.02.5c.05.97.39,1.78.84,2.65l3.74,7.73c.18.38.59.51.93.39-.16-.06-.31-.19-.4-.39Z"/>
          <path class="cls-10" d="m12.12,19.64c-.14-2.96-2.46-5.29-5.15-5.16-.09,0-.19.02-.28.03-2.55.28-4.49,2.73-4.36,5.59l.02.51c.05.98.37,1.78.79,2.65l3.49,7.76c.09.2.24.32.4.39.32.13.7,0,.88-.38l3.45-7.7c.48-1.05.84-2.01.78-3.19l-.02-.51Z"/>
          <circle class="cls-6" cx="7.04" cy="19.7" r="2.24"/>
        </g>
        <path class="cls-2" d="m25.62,17.46c-.15,1.94-1.7,3.24-3.38,3.97-.86.37-1.77.62-2.7.77-1.12.18-2.11.18-3.11.81-.5.31-.94.71-1.3,1.18-.18.24-.34.5-.4.79-.09.41,0,.84.1,1.25.05.21.1.43.22.61.16.25.43.42.71.55.74.36,1.56.52,2.38.63,1.69.22,3.39.23,5.09.17,1.33-.04,3.16-.49,4.35.26,1.4.88,1.66,3.02.31,4.07-.1.08-.21.15-.32.21-.03.02-.07.04-.1.06-.23.12-.5.18-.77.19-2.86.1-16.93.65-19.49.04"/>
        <g>
          <g>
            <g class="cls-12">
              <path class="cls-5" d="m30.03,3.04c1.61-.6,1.8-.69,2.13,3.87.68,2.32,2.36,7.24,1.5,13.05,0,0-2.48.21-5.89.21"/>
              <path class="cls-4" d="m27.82,20.35c-.11,0-.22-.06-.22-.18,0-.1.08-.18.18-.18h.04c2.89,0,5.13-.16,5.69-.2.74-5.27-.62-9.8-1.35-12.25l-.17-.58c-.19-2.57-.33-3.74-.71-3.99-.21-.14-.6,0-1.18.22l-.12-.33c.68-.26,1.13-.43,1.49-.19.5.32.66,1.34.87,4.22l.17.54c.75,2.5,2.14,7.14,1.34,12.54-.01.08-.08.14-.16.15-.02,0-2.5.21-5.86.21Zm2.21-17.31h0,0Z"/>
            </g>
            <g class="cls-12">
              <rect class="cls-5" x="20.77" y="2.87" width="1.16" height="1.04" rx=".5" ry=".5"/>
              <path class="cls-4" d="m21.44,4.2h-.17c-.44,0-.79-.35-.79-.79,0-.48.35-.84.79-.84h.17c.44,0,.79.35.79.79,0,.48-.35.84-.79.84Zm-.17-1.04c-.11,0-.2.09-.2.2,0,.16.09.25.2.25h.17c.11,0,.2-.09.2-.2,0-.16-.09-.25-.2-.25h-.17Z"/>
            </g>
            <g class="cls-12">
              <rect class="cls-5" x="24.19" y="2.87" width="1.29" height="1.19" rx=".56" ry=".56"/>
              <path class="cls-4" d="m24.92,4.36h-.16c-.47,0-.86-.38-.86-.86,0-.54.38-.92.86-.92h.16c.47,0,.86.38.86.86,0,.54-.38.92-.86.92Zm-.16-1.19c-.15,0-.27.12-.27.27,0,.21.12.33.27.33h.16c.15,0,.27-.12.27-.27,0-.21-.12-.33-.27-.33h-.16Z"/>
            </g>
            <g class="cls-12">
              <rect class="cls-5" x="27.73" y="2.87" width="1.1" height="1.19" rx=".52" ry=".52"/>
              <path class="cls-4" d="m28.31,4.36h-.05c-.45,0-.82-.37-.82-.82v-.14c0-.45.37-.82.82-.82.5,0,.87.37.87.82v.14c0,.45-.37.82-.82.82Zm0-1.19c-.18,0-.28.1-.28.23v.14c0,.13.1.23.23.23h.05c.13,0,.23-.1.23-.23v-.14c0-.13-.1-.23-.23-.23Z"/>
            </g>
            <g class="cls-12">
              <path class="cls-8" d="m19.49,3.01s-1.09,1.21-.72,3.61c0,0-4.28,9.18-2.5,13.36,0,0,11.78.61,12.32,0,0,0-.4-8.91.47-10.33.59-1.13,1.88-4.85.94-6.52-.67-1.18-1.5,1.45-2.76-.06-1.27-1.17-1.83,1.48-3.43.2,0,0-.98-1.27-2.17.3,0,0-.68.15-1.11-.34,0,0-.52-.68-1.04-.24Z"/>
              <path class="cls-7" d="m24.79,20.55c-2.65,0-6.07-.15-8.53-.27-.11,0-.21-.07-.26-.18-1.75-4.09,2.02-12.54,2.46-13.52-.35-2.45.75-3.71.8-3.76,0,0,.02-.02.03-.03.19-.17.42-.24.65-.22.45.05.78.45.81.5.22.25.56.26.72.24.71-.87,1.37-.89,1.81-.74.23.08.56.29.72.49.64.51,1.01.24,1.52-.12.47-.34,1.12-.8,1.91-.08.52.62.82.44,1.36.05.29-.21.59-.43.93-.36.21.05.39.19.53.45,1.03,1.81-.34,5.67-.93,6.8-.69,1.12-.55,7.73-.44,10.18,0,.08-.02.15-.07.21-.25.28-1.89.37-4.02.37Zm-8.31-.85c5.15.26,10.82.38,11.81.11-.06-1.53-.33-8.92.52-10.3.6-1.15,1.78-4.72.93-6.22-.06-.11-.12-.16-.14-.16-.08,0-.31.15-.46.26-.47.35-1.26.93-2.13-.12-.39-.35-.63-.21-1.14.15-.53.38-1.25.89-2.25.09-.02-.02-.04-.03-.05-.05-.01-.02-.3-.37-.71-.37h0c-.32,0-.66.23-1,.67-.04.06-.1.09-.17.11-.03,0-.85.17-1.39-.43-.07-.08-.25-.27-.42-.29-.04,0-.11,0-.19.07-.12.14-.96,1.25-.63,3.36,0,.06,0,.12-.02.17-.04.09-4.09,8.86-2.56,12.96Z"/>
            </g>
          </g>
          <g>
            <g class="cls-12">
              <path class="cls-9" d="m23.83,12.72s.09-.08.14-.13l.09-.1c.22-.26.77-.92.83-.98.04-.05.03-.13-.02-.17s-.14-.03-.18.02l-.8.95c-.05.06-.14.07-.21.02-.06-.05-.08-.13-.03-.19l.79-.94s0,0,0,0c.04-.05.03-.13-.02-.17-.06-.04-.14-.03-.18.02,0,0,0,0,0,0l-.79.94c-.05.06-.14.07-.21.02-.06-.05-.08-.13-.03-.19l.8-.95c.04-.05.03-.13-.02-.17-.06-.04-.14-.03-.18.02-.05.06-.61.72-.83.98l-.09.1s-.08.1-.1.15c-.12.22-.1.44-.09.62,0,.15-.06.37-.06.38l.19.14c.07-.09.21-.11.38-.14.19-.03.42-.07.63-.23Z"/>
            </g>
            <g class="cls-12">
              <path class="cls-9" d="m24.91,11.27c-.1-.07-.23-.06-.31.03l-.8.95s-.05.03-.08,0c-.02-.02-.03-.05,0-.07l.8-.95s0,0,0-.01c.07-.09.05-.21-.05-.28s-.22-.06-.3.02c0,0,0,0,0,0l-.8.95s-.05.03-.08,0c-.02-.02-.03-.05,0-.07l.8-.95c.07-.09.06-.22-.04-.29-.1-.07-.23-.06-.31.03-.05.06-.61.72-.83.98l-.09.1c-.05.05-.08.11-.11.17-.13.24-.11.48-.1.67,0,.14.02.26-.04.32,0,0,0,0,0,0l.07.05s0,0,0,0c0,0,.07-.22.06-.38-.01-.18-.03-.4.09-.62.03-.05.06-.11.1-.15l.09-.1c.22-.26.77-.92.83-.98.04-.05.12-.06.18-.02.06.04.07.12.02.17l-.8.95c-.05.06-.04.15.03.19.06.05.16.04.21-.02l.79-.94s0,0,0,0c.04-.05.12-.06.18-.02.06.04.07.12.02.17,0,0,0,0,0,0l-.79.94c-.05.06-.04.15.03.19.06.05.16.04.21-.02l.8-.95c.04-.05.12-.06.18-.02s.07.12.02.17c-.05.06-.61.72-.83.98l-.09.1s-.09.09-.14.13c-.2.16-.44.2-.63.23-.16.03-.3.05-.38.14,0,0,0,0,0,0,0,0,0,0,0,0l.07.05s0,0,0,0c.05-.06.17-.08.32-.11.2-.03.45-.07.67-.25.05-.04.1-.09.15-.14l.09-.1c.22-.26.77-.92.83-.98.07-.09.06-.22-.04-.29Z"/>
            </g>
          </g>
          <g>
            <rect class="cls-6" x="22.4" y="4.79" width="3.92" height=".85" rx=".41" ry=".41"/>
            <path class="cls-6" d="m25.91,5.94h-3.11c-.39,0-.7-.31-.7-.7,0-.43.31-.74.7-.74h3.11c.39,0,.7.31.7.7,0,.43-.31.74-.7.74Zm-3.11-.85c-.06,0-.11.05-.11.11,0,.1.05.15.11.15h3.11c.06,0,.11-.05.11-.11,0-.1-.05-.15-.11-.15h-3.11Z"/>
          </g>
          <g class="cls-12">
            <rect class="cls-5" x="19.1" y="6.73" width="9.96" height=".25" rx=".12" ry=".12"/>
            <path class="cls-4" d="m28.93,7.16h-9.72c-.16,0-.3-.13-.3-.3,0-.17.13-.31.3-.31h9.72c.16,0,.3.13.3.3,0,.17-.13.31-.3.31Zm0-.25h0,0Z"/>
          </g>
          <g class="cls-12">
            <rect class="cls-11" x="19.61" y="13.78" width="3.55" height="1.15" rx=".55" ry=".55" transform="translate(46.65 9.39) rotate(135)"/>
            <path class="cls-9" d="m20.53,15.85c-.16,0-.32-.06-.43-.18l-.04-.04c-.11-.11-.18-.27-.18-.43s.06-.32.18-.43l1.73-1.73c.23-.23.63-.23.86,0l.04.04c.24.24.24.62,0,.86l-1.73,1.73c-.11.11-.27.18-.43.18Zm1.69-2.86c-.13,0-.25.05-.35.14l-1.73,1.73c-.09.09-.14.22-.14.35s.05.25.14.35l.04.04c.18.19.51.19.69,0l1.73-1.73c.19-.19.19-.5,0-.69l-.04-.04c-.09-.09-.22-.14-.35-.14Z"/>
          </g>
          <g class="cls-12">
            <rect class="cls-11" x="21.32" y="13.7" width="3.55" height="1.15" rx=".55" ry=".55" transform="translate(16.86 -12.14) rotate(45)"/>
            <path class="cls-9" d="m23.94,15.77c-.16,0-.31-.06-.43-.18h0s-1.73-1.73-1.73-1.73c-.24-.24-.24-.62,0-.86l.04-.04c.11-.11.27-.18.43-.18h0c.16,0,.31.06.43.18l1.73,1.73c.24.24.24.62,0,.86l-.04.04c-.12.12-.27.18-.43.18Zm-.35-.26c.19.19.5.19.69,0l.04-.04c.19-.19.19-.5,0-.69l-1.73-1.73c-.09-.09-.21-.14-.35-.14h0c-.13,0-.25.05-.35.14l-.04.04c-.19.19-.19.5,0,.69l1.73,1.73Z"/>
          </g>
          <g class="cls-12">
            <ellipse class="cls-9" cx="20.84" cy="11.89" rx=".93" ry="1.26" transform="translate(-2.54 17.24) rotate(-42.59)"/>
            <path class="cls-9" d="m21.18,13.18c-.39,0-.81-.19-1.14-.55-.54-.58-.61-1.39-.16-1.81.45-.41,1.25-.27,1.79.31.54.58.61,1.39.16,1.81-.17.16-.4.24-.64.24Zm-.66-2.24c-.16,0-.3.05-.41.15-.3.28-.22.87.18,1.31.41.44.98.57,1.29.29.3-.28.22-.87-.19-1.31h0c-.26-.28-.6-.44-.88-.44Z"/>
          </g>
        </g>
      </g>
      <rect class="cls-1" width="36" height="36"/>
    </g>
  </g>
</svg>