<?xml version="1.0" encoding="UTF-8"?>
<svg id="_레이어_2" data-name="레이어 2" xmlns="http://www.w3.org/2000/svg" viewBox="0 0 36 36">
  <defs>
    <style>
      .cls-1 {
        fill: none;
      }

      .cls-2 {
        stroke-width: .3px;
      }

      .cls-2, .cls-3, .cls-4, .cls-5, .cls-6, .cls-7 {
        isolation: isolate;
      }

      .cls-2, .cls-3, .cls-8, .cls-5 {
        stroke-linecap: round;
        stroke-linejoin: round;
      }

      .cls-2, .cls-4, .cls-5 {
        fill: #e49d67;
        stroke: #e59e67;
      }

      .cls-9, .cls-7 {
        fill: #fce4d2;
      }

      .cls-10 {
        fill: #fbd943;
      }

      .cls-11 {
        fill: #e39d68;
      }

      .cls-3 {
        fill: #f0c080;
        stroke: #f0c07f;
      }

      .cls-3, .cls-4, .cls-8, .cls-5 {
        stroke-width: .5px;
      }

      .cls-4 {
        stroke-miterlimit: 10;
      }

      .cls-8 {
        fill: #fff;
        stroke: #fff;
      }
    </style>
  </defs>
  <g id="Layer_4" data-name="Layer 4">
    <g>
      <g>
        <g>
          <g>
            <path class="cls-2" d="m17.96,10.1c1.94-.73,2.18-.83,2.57,4.67.82,2.79,2.85,8.73,1.81,15.73,0,0-2.99.26-7.1.26"/>
            <rect class="cls-4" x="7.02" y="9.89" width="1.4" height="1.25" rx=".48" ry=".48"/>
            <rect class="cls-5" x="11.15" y="9.9" width="1.56" height="1.44" rx=".48" ry=".48"/>
            <rect class="cls-5" x="15.42" y="9.9" width="1.32" height="1.44" rx=".48" ry=".48"/>
            <path class="cls-3" d="m5.48,10.06s-1.31,1.46-.87,4.35c0,0-5.16,11.07-3.01,16.12,0,0,14.21.73,14.86,0,0,0-.49-10.75.57-12.46.71-1.37,2.27-5.85,1.13-7.86-.8-1.42-1.81,1.75-3.33-.08-1.53-1.41-2.21,1.79-4.14.24,0,0-1.18-1.54-2.62.37,0,0-.81.18-1.34-.41,0,0-.63-.82-1.25-.28Z"/>
          </g>
          <rect class="cls-8" x="8.99" y="12.22" width="4.73" height="1.03" rx=".4" ry=".4"/>
          <rect class="cls-2" x="5" y="14.56" width="12.01" height=".3" rx=".12" ry=".12"/>
          <g>
            <g class="cls-6">
              <path class="cls-9" d="m10.51,22.59c.06-.05.11-.1.16-.16l.11-.12c.26-.31.94-1.11,1-1.19.05-.06.04-.15-.03-.2s-.17-.04-.22.02l-.97,1.15c-.06.07-.17.08-.25.03-.08-.06-.09-.16-.03-.24l.96-1.14s0,0,0-.01c.05-.06.04-.15-.03-.2-.07-.05-.17-.04-.22.02,0,0,0,0-.01,0l-.96,1.14c-.06.07-.17.08-.25.03-.08-.06-.09-.16-.03-.24l.97-1.15c.05-.06.04-.15-.03-.2-.07-.05-.17-.04-.22.02-.07.08-.74.87-1,1.19l-.11.12c-.05.06-.09.12-.13.19-.14.27-.12.54-.11.75.01.18-.07.44-.07.46l.23.17c.09-.11.26-.14.46-.17.23-.04.51-.09.76-.27Z"/>
            </g>
            <g class="cls-6">
              <path class="cls-9" d="m11.82,20.83c-.12-.09-.28-.07-.37.04l-.97,1.15s-.07.03-.1,0c-.03-.02-.03-.06-.01-.09l.97-1.15s0,0,0-.01c.08-.11.06-.26-.06-.34s-.27-.07-.36.03c0,0,0,0-.01.01l-.97,1.15s-.07.03-.1,0c-.03-.02-.03-.06-.01-.09l.97-1.15c.09-.11.07-.26-.05-.35-.12-.09-.28-.07-.37.04-.07.08-.74.87-1,1.19l-.11.12c-.05.06-.1.13-.14.2-.15.29-.13.58-.12.8.01.17.02.31-.05.39,0,0,0,0,0,0l.09.06s0,0,0,0c0-.01.08-.27.07-.46-.01-.22-.03-.49.11-.75.03-.06.08-.13.13-.19l.11-.12c.26-.31.93-1.11,1-1.19.05-.06.15-.07.22-.02.07.05.08.14.03.2l-.97,1.15c-.06.07-.05.18.03.24.08.06.19.05.25-.03l.96-1.14s0,0,.01,0c.05-.06.15-.07.22-.02.07.05.08.14.03.2,0,0,0,0,0,.01l-.96,1.14c-.06.07-.05.18.03.24.08.06.19.05.25-.03l.97-1.15c.05-.06.15-.07.22-.02s.08.14.03.2c-.07.08-.74.87-1,1.19l-.11.12c-.05.06-.11.11-.16.16-.24.19-.53.24-.76.27-.2.03-.37.06-.46.17,0,0,0,0,0,0,0,0,0,0,0,0l.09.06s0,0,0,0c.06-.08.21-.1.39-.13.24-.04.54-.09.81-.3.07-.05.13-.11.18-.17l.11-.12c.26-.31.94-1.11,1-1.19.09-.11.07-.26-.05-.35Z"/>
            </g>
          </g>
          <g class="cls-6">
            <rect class="cls-11" x="5.4" y="23.88" width="4.29" height="1.39" rx=".66" ry=".66" transform="translate(30.26 36.61) rotate(135)"/>
            <path class="cls-9" d="m6.52,26.37h0c-.2,0-.38-.08-.52-.21l-.04-.04c-.29-.29-.29-.75,0-1.04l2.09-2.1c.29-.29.75-.29,1.04,0l.05.05c.29.29.29.75,0,1.04l-2.09,2.09c-.14.14-.32.21-.52.21Zm2.05-3.47c-.15,0-.3.06-.42.17l-2.09,2.09h0c-.23.23-.23.61,0,.84l.04.04c.11.11.26.17.42.17h0c.16,0,.31-.06.42-.17l2.09-2.09c.23-.23.23-.61,0-.84l-.05-.05c-.12-.12-.27-.17-.42-.17Zm-2.56,2.22h0,0Z"/>
          </g>
          <g class="cls-6">
            <rect class="cls-11" x="7.47" y="23.78" width="4.29" height="1.39" rx=".66" ry=".66" transform="translate(20.12 .37) rotate(45)"/>
            <path class="cls-9" d="m10.64,26.28c-.19,0-.38-.07-.52-.21h0l-2.09-2.1c-.14-.14-.21-.32-.21-.52s.08-.38.21-.52l.04-.04c.14-.14.32-.21.52-.21s.38.08.52.21l2.09,2.09c.29.29.29.75,0,1.04l-.05.05c-.14.14-.33.21-.52.21Zm-.42-.31c.23.23.61.23.84,0l.05-.05c.23-.23.23-.61,0-.84l-2.1-2.09c-.22-.22-.61-.22-.84,0l-.04.04c-.11.11-.17.26-.17.42s.06.31.17.42l2.09,2.1Z"/>
          </g>
          <g class="cls-6">
            <ellipse class="cls-9" cx="6.9" cy="21.58" rx="1.12" ry="1.53" transform="translate(-12.78 10.37) rotate(-42.59)"/>
            <path class="cls-9" d="m7.31,23.15c-.47,0-.98-.23-1.38-.67-.65-.71-.74-1.69-.2-2.18.54-.5,1.51-.33,2.16.38h0c.65.71.74,1.69.2,2.18-.21.19-.48.28-.78.28Zm-.8-2.71c-.19,0-.36.06-.49.18-.37.34-.27,1.05.22,1.58.49.53,1.19.69,1.56.36.37-.34.27-1.05-.22-1.58-.32-.34-.72-.53-1.06-.53Z"/>
          </g>
        </g>
        <path class="cls-7" d="m28.88,7.39l-16.52.17-.42.09-6.97,2.98c-.11.05-.08.21.04.21l12.32.14c.11,0,.15.14.06.2-1.3.89-6.46,4.63-4.27,6.33,0,0,1.72,2.41,7.58-2.42.01,0,.01-.01.03-.01.19,0,2.81-.1,4.03-.54,0,0,.91-.11,1.23-2.04,0,0-.16-.52.74-.51h2.15c.06,0,.11-.04.11-.1v-4.39c0-.06-.05-.11-.11-.11Z"/>
        <rect class="cls-10" x="28.45" y="5.14" width="6.48" height="9.28" rx=".36" ry=".36"/>
      </g>
      <rect class="cls-1" width="36" height="36"/>
    </g>
  </g>
</svg>