<?xml version="1.0" encoding="UTF-8"?>
<svg id="_레이어_2" data-name="레이어 2" xmlns="http://www.w3.org/2000/svg" viewBox="0 0 36 36">
  <defs>
    <style>
      .cls-1 {
        fill: none;
      }

      .cls-2 {
        fill: #e59e67;
      }

      .cls-3 {
        fill: #fff;
      }

      .cls-4 {
        fill: #f0c07f;
      }

      .cls-5, .cls-6 {
        fill: #fce4d2;
      }

      .cls-7 {
        fill: #fbd943;
      }

      .cls-8 {
        fill: #e39d68;
      }

      .cls-9, .cls-6 {
        isolation: isolate;
      }
    </style>
  </defs>
  <g id="Layer_4" data-name="Layer 4">
    <g>
      <g>
        <g>
          <g>
            <path class="cls-2" d="m20.88,15.43c-.07-.25-.14-.48-.2-.66-.25-3.45-.43-4.67-1.02-5.04-.41-.26-.94-.07-1.75.24l.04.15s0,0,0,0l-2.69,20.51h-.02c-.08,0-.15.07-.15.15,0,.1.1.15.2.15,4.05,0,7.04-.25,7.07-.26.07,0,.13-.06.14-.13.96-6.5-.71-12.1-1.61-15.1Z"/>
            <g>
              <rect class="cls-2" x="6.77" y="9.64" width="1.9" height="1.75" rx=".73" ry=".73"/>
              <rect class="cls-2" x="10.9" y="9.65" width="2.06" height="1.94" rx=".73" ry=".73"/>
              <rect class="cls-2" x="15.17" y="9.65" width="1.82" height="1.94" rx=".73" ry=".73"/>
            </g>
            <path class="cls-4" d="m18.38,10.1c-.16-.28-.35-.44-.57-.49-.37-.08-.69.16-1.04.42-.66.48-1.1.74-1.77-.06-.89-.81-1.6-.31-2.17.1-.61.43-1.13.81-1.97.14-.16-.21-.51-.46-.82-.57-.5-.17-1.27-.15-2.1.89-.19.02-.68.03-1.01-.33-.04-.05-.4-.51-.91-.56-.25-.02-.5.06-.71.24,0,0-.02.01-.02.02-.06.06-1.36,1.56-.94,4.48-.47,1.03-5.09,11.32-2.98,16.25.04.09.12.15.22.15,2.01.1,6.74.33,10.37.33,2.46,0,4.41-.1,4.68-.41.04-.05.07-.11.06-.18-.13-2.97-.3-10.96.54-12.33.7-1.34,2.34-5.95,1.13-8.1Z"/>
          </g>
          <rect class="cls-3" x="8.74" y="11.97" width="5.23" height="1.53" rx=".65" ry=".65"/>
          <rect class="cls-2" x="4.85" y="14.41" width="12.31" height=".6" rx=".27" ry=".27"/>
          <path class="cls-5" d="m11.82,20.83c-.12-.09-.28-.07-.37.04l-.97,1.15s-.07.03-.1.01c-.03-.02-.03-.06-.01-.09l.97-1.15s0,0,0-.01c.08-.11.06-.26-.06-.34s-.27-.07-.36.03c0,0,0,0-.01.01l-.97,1.15s-.07.03-.1.01c-.03-.02-.03-.06-.01-.09l.97-1.15c.09-.11.07-.26-.05-.35-.12-.09-.28-.07-.37.04-.07.08-.74.87-1,1.19l-.11.12c-.05.06-.1.13-.14.2-.15.29-.13.58-.12.8.01.17.02.31-.05.39,0,0,0,0,0,0l.09.06s0,0,0,0l.23.17s0,0,0,0c0,0,0,0,0,0l.09.06s0,0,0,0c.06-.08.21-.1.39-.13.24-.04.54-.09.81-.3.07-.05.13-.11.18-.17l.11-.12c.26-.31.94-1.11,1-1.19.09-.11.07-.26-.05-.35Z"/>
          <g class="cls-9">
            <rect class="cls-8" x="5.4" y="23.88" width="4.29" height="1.39" rx=".66" ry=".66" transform="translate(30.26 36.61) rotate(135)"/>
            <path class="cls-5" d="m6.52,26.37h0c-.2,0-.38-.08-.52-.21l-.04-.04c-.29-.29-.29-.75,0-1.04l2.09-2.1c.29-.29.75-.29,1.04,0l.05.05c.29.29.29.75,0,1.04l-2.09,2.09c-.14.14-.32.21-.52.21Zm2.05-3.47c-.15,0-.3.06-.42.17l-2.09,2.09h0c-.23.23-.23.61,0,.84l.04.04c.11.11.26.17.42.17h0c.16,0,.31-.06.42-.17l2.09-2.09c.23-.23.23-.61,0-.84l-.05-.05c-.12-.12-.27-.17-.42-.17Zm-2.56,2.22h0,0Z"/>
          </g>
          <g class="cls-9">
            <rect class="cls-8" x="7.47" y="23.78" width="4.29" height="1.39" rx=".66" ry=".66" transform="translate(20.12 .37) rotate(45)"/>
            <path class="cls-5" d="m10.64,26.28c-.19,0-.38-.07-.52-.21h0l-2.09-2.1c-.14-.14-.21-.32-.21-.52s.08-.38.21-.52l.04-.04c.14-.14.32-.21.52-.21s.38.08.52.21l2.09,2.09c.29.29.29.75,0,1.04l-.05.05c-.14.14-.33.21-.52.21Zm-.42-.31c.23.23.61.23.84,0l.05-.05c.23-.23.23-.61,0-.84l-2.1-2.09c-.22-.22-.61-.22-.84,0l-.04.04c-.11.11-.17.26-.17.42s.06.31.17.42l2.09,2.1Z"/>
          </g>
          <path class="cls-5" d="m7.88,20.68c-.65-.71-1.62-.88-2.16-.38-.54.5-.45,1.48.2,2.18.4.43.92.67,1.38.67.29,0,.57-.09.78-.28.54-.5.45-1.48-.2-2.18Z"/>
        </g>
        <path class="cls-6" d="m28.88,7.39l-16.52.17-.42.09-6.97,2.98c-.11.05-.08.21.04.21l12.32.14c.11,0,.15.14.06.2-1.3.89-6.46,4.63-4.27,6.33,0,0,1.72,2.41,7.58-2.42.01,0,.01-.01.03-.01.19,0,2.81-.1,4.03-.54,0,0,.91-.11,1.23-2.04,0,0-.16-.52.74-.51h2.15c.06,0,.11-.04.11-.1v-4.39c0-.06-.05-.11-.11-.11Z"/>
        <rect class="cls-7" x="28.45" y="5.14" width="6.48" height="9.28" rx=".36" ry=".36"/>
      </g>
      <rect class="cls-1" width="36" height="36"/>
    </g>
  </g>
</svg>